<?xml version="1.0" encoding="UTF-8"?>
<svg width="256px" height="256px" viewBox="0 0 256 256" xmlns="http://www.w3.org/2000/svg" xmlns:xlink="http://www.w3.org/1999/xlink" version="1.1">
 <!-- Generated by Pixelmator Pro 2.0.3 -->
 <defs>
  <path id="􀈂" d="M71.566 236.52 L183.578 236.52 C193.8 236.52 201.465 233.98 206.576 228.902 211.687 223.824 214.242 216.272 214.242 206.246 L214.242 108.785 C214.242 98.759 211.687 91.207 206.576 86.129 201.465 81.051 193.8 78.512 183.578 78.512 L156.332 78.512 156.332 94.234 183.285 94.234 C188.103 94.234 191.846 95.536 194.516 98.141 197.185 100.745 198.52 104.586 198.52 109.664 L198.52 205.367 C198.52 210.445 197.185 214.286 194.516 216.891 191.846 219.495 188.103 220.797 183.285 220.797 L71.762 220.797 C66.879 220.797 63.135 219.495 60.531 216.891 57.927 214.286 56.625 210.445 56.625 205.367 L56.625 109.664 C56.625 104.586 57.927 100.745 60.531 98.141 63.135 95.536 66.879 94.234 71.762 94.234 L98.813 94.234 98.813 78.512 71.566 78.512 C61.345 78.512 53.679 81.034 48.568 86.08 43.458 91.126 40.902 98.694 40.902 108.785 L40.902 206.246 C40.902 216.337 43.458 223.906 48.568 228.951 53.679 233.997 61.345 236.52 71.566 236.52 Z M127.621 160.055 C129.704 160.055 131.511 159.306 133.041 157.809 134.571 156.311 135.336 154.521 135.336 152.438 L135.336 52.145 134.75 37.496 141.293 44.43 156.137 60.25 C157.504 61.813 159.262 62.594 161.41 62.594 163.428 62.594 165.121 61.943 166.488 60.641 167.855 59.339 168.539 57.678 168.539 55.66 168.539 54.618 168.344 53.691 167.953 52.877 167.563 52.063 166.977 51.298 166.195 50.582 L133.188 18.746 C132.211 17.77 131.283 17.086 130.404 16.695 129.525 16.305 128.598 16.109 127.621 16.109 126.579 16.109 125.619 16.305 124.74 16.695 123.861 17.086 122.934 17.77 121.957 18.746 L88.949 50.582 C88.168 51.298 87.582 52.063 87.191 52.877 86.801 53.691 86.605 54.618 86.605 55.66 86.605 57.678 87.273 59.339 88.607 60.641 89.942 61.943 91.618 62.594 93.637 62.594 95.85 62.594 97.641 61.813 99.008 60.25 L113.852 44.43 120.395 37.496 119.809 52.145 119.809 152.438 C119.809 154.521 120.574 156.311 122.104 157.809 123.633 159.306 125.473 160.055 127.621 160.055 Z"/>
 </defs>
 <use id="􀈂-1" xlink:href="#􀈂" fill="#000000" fill-opacity="1" stroke="none"/>
 <use id="􀈂-2" xlink:href="#􀈂" fill="#1c70f2" fill-opacity="1" stroke="none"/>
</svg>
